<svg width="889" height="124" viewBox="0 0 889 124" fill="none" xmlns="http://www.w3.org/2000/svg">
<path d="M80.4904 84.7134C80.6186 94.1607 81.2668 98.9451 88.64 98.9451V99.6199H61.0852V98.9451C68.4583 98.9451 69.2348 94.1607 69.2348 84.7134V54.6845H19.4119V84.7134C19.4119 94.1607 20.1884 98.9451 27.5683 98.9451V99.6199H0V98.9451C7.37992 98.9451 8.02134 94.1607 8.15638 84.7134V23.8998C8.02134 14.4525 7.37992 9.67481 0 9.67481V9H27.5683V9.67481C20.1884 9.67481 19.4119 14.4592 19.4119 23.8998V54.0367H69.2348V23.8998C69.2348 14.4525 68.4583 9.67481 61.0852 9.67481V9H88.6468V9.67481C81.2736 9.67481 80.6254 14.4592 80.4971 23.8998L80.4904 84.7134Z" fill="url(#paint0_linear)"/>
<path d="M157.496 98.5266V99.2014C155.667 100.302 153.553 100.842 151.42 100.754C144.046 100.754 137.315 98.945 136.282 88.4653C133.304 93.7692 129.293 97.9125 123.595 99.721C113.892 102.697 100.172 100.234 101.077 87.3046C101.988 73.5925 120.36 71.784 129.293 68.8081C131.686 68.0298 133.984 66.9887 136.147 65.704V54.1648C136.147 43.1722 134.594 35.0205 125.148 35.0205C116.735 35.0205 112.724 37.4836 110.786 41.8766C108.842 46.0199 112.596 47.5719 113.487 51.3239C113.685 52.1221 113.67 52.958 113.446 53.7491C113.221 54.5401 112.793 55.2589 112.206 55.8342C111.618 56.4095 110.89 56.8214 110.094 57.0292C109.298 57.2371 108.461 57.2336 107.667 57.0192C104.169 56.2432 102.616 51.587 104.817 46.9309C107.019 42.1465 111.677 34.5144 125.526 34.5144C137.679 34.5144 146.747 40.5877 146.747 53.5237V86.1169C146.747 94.7815 147.139 99.829 153.087 99.829C154.639 99.7498 156.15 99.3034 157.496 98.5266ZM136.275 87.7904C136.163 87.0198 136.117 86.2408 136.14 85.4624V66.1966C134.12 67.3962 131.991 68.3995 129.779 69.1928C123.568 71.5208 111.272 72.6883 109.983 84.3287C108.558 98.0408 117.747 102.177 125.769 98.2972C130.455 96.0703 133.831 92.1902 136.275 87.7904Z" fill="url(#paint1_linear)"/>
<path d="M234.888 98.918V99.5928H207.968V98.918C215.347 98.918 216.124 94.1337 216.124 84.6864V54.4213C216.124 45.7567 214.571 35.2837 202.012 35.2837C196.577 35.2837 188.556 39.9399 185.578 47.8284C185.45 50.1565 185.45 52.741 185.45 55.7169V84.7134C185.45 94.1607 186.226 98.9451 193.606 98.9451V99.6199H166.558V98.9451C173.931 98.9451 174.707 94.1607 174.707 84.7134V50.5681C174.707 40.9993 173.931 36.3432 166.558 36.3432V35.6684H187.651V36.3432C186.746 36.7346 185.97 39.8387 185.578 46.3033C188.954 39.8387 195.416 34.4065 204.605 34.4065C217.434 34.4065 226.731 39.8049 226.731 55.0961V84.7134C226.86 94.2619 227.508 98.918 234.888 98.918Z" fill="url(#paint2_linear)"/>
<path d="M316.134 98.918V99.5928H289.241V98.918C296.614 98.918 297.391 94.1337 297.391 84.6864V54.4213C297.391 45.7567 295.838 35.2837 283.286 35.2837C277.85 35.2837 269.829 39.9399 266.851 47.8284C266.723 50.1565 266.723 52.741 266.723 55.7169V84.7134C266.723 94.1607 267.5 98.9451 274.873 98.9451V99.6199H247.824V98.9451C255.204 98.9451 255.981 94.1607 255.981 84.7134V50.5681C255.981 40.9993 255.204 36.3432 247.824 36.3432V35.6684H268.924V36.3432C268.019 36.7346 267.236 39.8387 266.851 46.3033C270.227 39.8387 276.689 34.4065 285.872 34.4065C298.7 34.4065 308.005 39.8049 308.005 55.0961V84.7134C308.133 94.2619 308.781 98.918 316.134 98.918Z" fill="url(#paint3_linear)"/>
<path d="M385.005 98.5266V99.2014C383.175 100.304 381.062 100.843 378.928 100.754C371.555 100.754 364.823 98.945 363.79 88.4653C360.812 93.7693 356.802 97.9126 351.103 99.7211C341.4 102.697 327.68 100.234 328.592 87.3046C329.497 73.5925 347.869 71.784 356.802 68.8081C359.196 68.0284 361.496 66.9874 363.662 65.704V54.1648C363.662 43.1722 362.109 35.0205 352.663 35.0205C344.25 35.0205 340.239 37.4836 338.295 41.8766C336.357 46.0199 340.104 47.5719 340.995 51.3239C341.194 52.1228 341.18 52.9596 340.955 53.7514C340.73 54.5432 340.301 55.2625 339.713 55.8381C339.124 56.4136 338.395 56.8253 337.598 57.0325C336.801 57.2397 335.963 57.2351 335.168 57.0193C331.664 56.2365 330.138 51.5803 332.339 46.9241C334.54 42.1398 339.199 34.5077 353.048 34.5077C365.201 34.5077 374.269 40.5809 374.269 53.517V86.1102C374.269 94.7747 374.661 99.8223 380.616 99.8223C382.161 99.742 383.664 99.298 385.005 98.5266ZM363.783 87.7905C363.677 87.0193 363.634 86.2406 363.655 85.4624V66.1966C361.644 67.3934 359.523 68.3966 357.322 69.1928C351.103 71.5209 338.814 72.6883 337.518 84.3287C336.093 98.0408 345.283 102.177 353.304 98.2972C357.956 96.0704 361.326 92.1902 363.783 87.7905Z" fill="url(#paint4_linear)"/>
<path d="M639.014 53.5617C639.014 78.786 625.166 98.8278 597.213 98.8278H554V98.1529C561.38 98.1529 562.021 93.3685 562.156 83.9212V23.1684C562.021 13.7211 561.38 8.94342 554 8.94342V8.26862H597.213C625.038 8.29561 639.014 28.3441 639.014 53.5617ZM626.071 53.5617C626.071 19.0318 608.212 8.94342 591.514 8.94342H581.555C574.175 8.94342 573.398 13.7278 573.398 23.1684V83.982C573.398 93.4293 574.175 98.2137 581.555 98.2137H591.514C608.212 98.1867 626.071 88.2265 626.071 53.5617Z" fill="url(#paint5_linear)"/>
<path d="M662.822 55.7616C662.126 60.0798 661.953 64.4663 662.309 68.8259C663.99 88.0984 674.463 99.867 688.318 99.4756C696.603 99.3474 703.719 95.2108 708.635 90.4265V91.8503C703.976 95.8586 698.155 99.3474 688.318 99.9952C670.088 101.163 652.343 90.5479 650.79 69.2105C649.494 49.1687 664.247 35.0653 682.234 33.7764C697.507 32.609 709.154 41.0171 711.612 55.7616H662.822ZM662.957 55.242H700.613C699.58 44.6408 695.434 34.5524 682.234 34.323C672.275 34.161 665.287 43.0887 662.978 55.242H662.957Z" fill="url(#paint6_linear)"/>
<path d="M790.941 98.1866V98.8614H764.028V98.1866C771.401 98.1866 772.178 93.4023 772.178 83.955V53.6899C772.178 45.0253 770.625 34.5524 758.073 34.5524C752.637 34.5524 744.616 39.2085 741.638 47.097C741.51 49.4251 741.51 52.0096 741.51 54.9855V83.982C741.51 93.4293 742.287 98.2137 749.66 98.2137V98.8885H722.611V98.2137C729.991 98.2137 730.768 93.4293 730.768 83.982V49.8367C730.768 40.268 729.991 35.6118 722.611 35.6118V34.937H743.711V35.6118C742.8 36.0032 742.023 39.1073 741.638 45.572C745.014 39.1073 751.476 33.6751 760.659 33.6751C773.488 33.6751 782.792 39.1073 782.792 54.3647V83.982C782.92 93.5305 783.568 98.1866 790.941 98.1866Z" fill="url(#paint7_linear)"/>
<path d="M829.508 98.1866V98.8615H802.588V98.1866C809.968 98.1866 810.616 93.4023 810.744 83.955V49.6815C810.616 40.2342 809.968 35.5848 802.588 35.5848V34.91H823.553V35.5848C822.263 36.2597 821.358 42.0495 821.358 55.1137V83.982C821.358 93.4293 822.135 98.1866 829.508 98.1866ZM809.191 14.2474C809.191 10.2323 812.169 7 816.051 7C819.805 7 822.911 10.2323 822.911 14.2474C822.932 15.1656 822.77 16.0787 822.436 16.9342C822.102 17.7897 821.601 18.5705 820.964 19.2317C820.326 19.8929 819.564 20.4215 818.72 20.7867C817.877 21.152 816.97 21.3468 816.051 21.3599C815.129 21.3577 814.217 21.1704 813.369 20.8089C812.521 20.4475 811.754 19.9193 811.114 19.2558C810.474 18.5924 809.974 17.8071 809.644 16.9467C809.314 16.0864 809.16 15.1684 809.191 14.2474Z" fill="url(#paint8_linear)"/>
<path d="M888.777 82.9226C888.777 93.9152 880.242 99.9952 864.969 99.9952C853.066 99.9952 846.064 93.2471 843.613 89.6504C840.77 85.3789 841.547 80.4663 844.781 79.1706C848.157 77.8817 851.769 80.4663 851.378 83.955C851.121 87.707 846.854 90.4264 850.216 94.1783C852.674 97.0193 856.813 99.4756 864.969 99.4756C873.382 99.4756 879.074 94.0434 879.074 87.5787C879.074 71.93 844.909 71.2821 844.909 49.0337C844.909 39.0803 853.322 33.7763 866.516 33.7763C878.034 33.7763 882.822 39.1748 885.279 42.8255C888.129 47.097 887.352 51.8814 884.118 53.3052C880.742 54.6009 877.123 52.0096 877.515 48.5209C877.771 44.7689 881.525 42.1844 878.419 38.6889C876.09 36.2326 873.632 34.2892 866.516 34.2892C858.359 34.2892 854.092 39.9846 854.092 46.1928C854.099 61.8416 888.777 64.0414 888.777 82.9226Z" fill="url(#paint9_linear)"/>
<path d="M502.982 82.8886C502.592 96.1521 492.834 109.088 471.995 109.547L472.657 124H470.812L471.344 109.547H471.073C451.96 109.547 436.266 100.53 436.005 83.8165C435.734 68.0314 446.414 59.2763 463.139 58.8833C450.115 55.9686 441.649 46.9407 441.779 35.0091C441.779 18.9619 455.759 14.1914 467.621 14.1914H469.076L468.544 0H470.4L469.868 14.1914C495.048 15.7743 495.32 44.5609 481.34 50.5322V48.5346C495.048 40.5765 490.305 14.6936 469.206 14.6936C458.928 14.6936 452.589 24.1144 452.589 35.6531C452.589 47.1918 459.188 58.8615 471.04 58.8615H475.523V59.7894H467.752C456.138 59.7894 447.575 68.4134 448.497 84.1877C449.29 101.436 461.413 108.859 472.755 108.859C491.087 108.859 501.767 96.6543 501.767 83.5327C501.767 71.8521 494.386 64.1669 486.995 63.239V61.3832C496.915 63.2608 503.384 71.8739 502.982 82.8886Z" fill="url(#paint10_linear)"/>
<defs>
<linearGradient id="paint0_linear" x1="43063.7" y1="42230.6" x2="54702.1" y2="42230.6" gradientUnits="userSpaceOnUse">
<stop stop-color="#E5AC47"/>
<stop offset="0.14" stop-color="#CE8B23"/>
<stop offset="0.27" stop-color="#EEC85D"/>
<stop offset="0.41" stop-color="#CE8B23"/>
<stop offset="0.53" stop-color="#F1CD4F"/>
<stop offset="0.65" stop-color="#EEC85D"/>
<stop offset="0.77" stop-color="#CE8B23"/>
<stop offset="0.87" stop-color="#E5AC47"/>
<stop offset="1" stop-color="#CE8B23"/>
</linearGradient>
<linearGradient id="paint1_linear" x1="35978.2" y1="32258.8" x2="40700.1" y2="32258.8" gradientUnits="userSpaceOnUse">
<stop stop-color="#E5AC47"/>
<stop offset="0.14" stop-color="#CE8B23"/>
<stop offset="0.27" stop-color="#EEC85D"/>
<stop offset="0.41" stop-color="#CE8B23"/>
<stop offset="0.53" stop-color="#F1CD4F"/>
<stop offset="0.65" stop-color="#EEC85D"/>
<stop offset="0.77" stop-color="#CE8B23"/>
<stop offset="0.87" stop-color="#E5AC47"/>
<stop offset="1" stop-color="#CE8B23"/>
</linearGradient>
<linearGradient id="paint2_linear" x1="50216.3" y1="31644" x2="57131.3" y2="31644" gradientUnits="userSpaceOnUse">
<stop stop-color="#E5AC47"/>
<stop offset="0.14" stop-color="#CE8B23"/>
<stop offset="0.27" stop-color="#EEC85D"/>
<stop offset="0.41" stop-color="#CE8B23"/>
<stop offset="0.53" stop-color="#F1CD4F"/>
<stop offset="0.65" stop-color="#EEC85D"/>
<stop offset="0.77" stop-color="#CE8B23"/>
<stop offset="0.87" stop-color="#E5AC47"/>
<stop offset="1" stop-color="#CE8B23"/>
</linearGradient>
<linearGradient id="paint3_linear" x1="58504.5" y1="31644" x2="65417.4" y2="31644" gradientUnits="userSpaceOnUse">
<stop stop-color="#E5AC47"/>
<stop offset="0.14" stop-color="#CE8B23"/>
<stop offset="0.27" stop-color="#EEC85D"/>
<stop offset="0.41" stop-color="#CE8B23"/>
<stop offset="0.53" stop-color="#F1CD4F"/>
<stop offset="0.65" stop-color="#EEC85D"/>
<stop offset="0.77" stop-color="#CE8B23"/>
<stop offset="0.87" stop-color="#E5AC47"/>
<stop offset="1" stop-color="#CE8B23"/>
</linearGradient>
<linearGradient id="paint4_linear" x1="55224.6" y1="32262.1" x2="59946" y2="32262.1" gradientUnits="userSpaceOnUse">
<stop stop-color="#E5AC47"/>
<stop offset="0.14" stop-color="#CE8B23"/>
<stop offset="0.27" stop-color="#EEC85D"/>
<stop offset="0.41" stop-color="#CE8B23"/>
<stop offset="0.53" stop-color="#F1CD4F"/>
<stop offset="0.65" stop-color="#EEC85D"/>
<stop offset="0.77" stop-color="#CE8B23"/>
<stop offset="0.87" stop-color="#E5AC47"/>
<stop offset="1" stop-color="#CE8B23"/>
</linearGradient>
<linearGradient id="paint5_linear" x1="44810.7" y1="69007.1" x2="55516.5" y2="69007.1" gradientUnits="userSpaceOnUse">
<stop stop-color="#E5AC47"/>
<stop offset="0.14" stop-color="#CE8B23"/>
<stop offset="0.27" stop-color="#EEC85D"/>
<stop offset="0.41" stop-color="#CE8B23"/>
<stop offset="0.53" stop-color="#F1CD4F"/>
<stop offset="0.65" stop-color="#EEC85D"/>
<stop offset="0.77" stop-color="#CE8B23"/>
<stop offset="0.87" stop-color="#E5AC47"/>
<stop offset="1" stop-color="#CE8B23"/>
</linearGradient>
<linearGradient id="paint6_linear" x1="41078.8" y1="51945.6" x2="46572.1" y2="51945.6" gradientUnits="userSpaceOnUse">
<stop stop-color="#E5AC47"/>
<stop offset="0.14" stop-color="#CE8B23"/>
<stop offset="0.27" stop-color="#EEC85D"/>
<stop offset="0.41" stop-color="#CE8B23"/>
<stop offset="0.53" stop-color="#F1CD4F"/>
<stop offset="0.65" stop-color="#EEC85D"/>
<stop offset="0.77" stop-color="#CE8B23"/>
<stop offset="0.87" stop-color="#E5AC47"/>
<stop offset="1" stop-color="#CE8B23"/>
</linearGradient>
<linearGradient id="paint7_linear" x1="53358.6" y1="50946.4" x2="60273.6" y2="50946.4" gradientUnits="userSpaceOnUse">
<stop stop-color="#E5AC47"/>
<stop offset="0.14" stop-color="#CE8B23"/>
<stop offset="0.27" stop-color="#EEC85D"/>
<stop offset="0.41" stop-color="#CE8B23"/>
<stop offset="0.53" stop-color="#F1CD4F"/>
<stop offset="0.65" stop-color="#EEC85D"/>
<stop offset="0.77" stop-color="#CE8B23"/>
<stop offset="0.87" stop-color="#E5AC47"/>
<stop offset="1" stop-color="#CE8B23"/>
</linearGradient>
<linearGradient id="paint8_linear" x1="24728.4" y1="69909.9" x2="25801.7" y2="69909.9" gradientUnits="userSpaceOnUse">
<stop stop-color="#E5AC47"/>
<stop offset="0.14" stop-color="#CE8B23"/>
<stop offset="0.27" stop-color="#EEC85D"/>
<stop offset="0.41" stop-color="#CE8B23"/>
<stop offset="0.53" stop-color="#F1CD4F"/>
<stop offset="0.65" stop-color="#EEC85D"/>
<stop offset="0.77" stop-color="#CE8B23"/>
<stop offset="0.87" stop-color="#E5AC47"/>
<stop offset="1" stop-color="#CE8B23"/>
</linearGradient>
<linearGradient id="paint9_linear" x1="45268.4" y1="51794.4" x2="48528.7" y2="51794.4" gradientUnits="userSpaceOnUse">
<stop stop-color="#E5AC47"/>
<stop offset="0.14" stop-color="#CE8B23"/>
<stop offset="0.27" stop-color="#EEC85D"/>
<stop offset="0.41" stop-color="#CE8B23"/>
<stop offset="0.53" stop-color="#F1CD4F"/>
<stop offset="0.65" stop-color="#EEC85D"/>
<stop offset="0.77" stop-color="#CE8B23"/>
<stop offset="0.87" stop-color="#E5AC47"/>
<stop offset="1" stop-color="#CE8B23"/>
</linearGradient>
<linearGradient id="paint10_linear" x1="49825.7" y1="78752.4" x2="53962.3" y2="78752.4" gradientUnits="userSpaceOnUse">
<stop stop-color="#E5AC47"/>
<stop offset="0.14" stop-color="#CE8B23"/>
<stop offset="0.27" stop-color="#EEC85D"/>
<stop offset="0.41" stop-color="#CE8B23"/>
<stop offset="0.53" stop-color="#F1CD4F"/>
<stop offset="0.65" stop-color="#EEC85D"/>
<stop offset="0.77" stop-color="#CE8B23"/>
<stop offset="0.87" stop-color="#E5AC47"/>
<stop offset="1" stop-color="#CE8B23"/>
</linearGradient>
</defs>
</svg>
