<svg width="200" height="200" viewBox="0 0 200 200" fill="none" xmlns="http://www.w3.org/2000/svg">
<g clip-path="url(#clip0)">
<path d="M183.333 1.57139H166.667V-5.28577C166.667 -8.92299 165.262 -12.4113 162.761 -14.9832C160.261 -17.5551 156.87 -19 153.333 -19C149.797 -19 146.406 -17.5551 143.905 -14.9832C141.405 -12.4113 140 -8.92299 140 -5.28577V1.57139H113.333V-5.28577C113.333 -8.92299 111.929 -12.4113 109.428 -14.9832C106.928 -17.5551 103.536 -19 100 -19C96.4638 -19 93.0724 -17.5551 90.5719 -14.9832C88.0714 -12.4113 86.6667 -8.92299 86.6667 -5.28577V1.57139H60V-5.28577C60 -8.92299 58.5952 -12.4113 56.0948 -14.9832C53.5943 -17.5551 50.2029 -19 46.6667 -19C43.1304 -19 39.7391 -17.5551 37.2386 -14.9832C34.7381 -12.4113 33.3333 -8.92299 33.3333 -5.28577V1.57139H16.6667C12.2464 1.57139 8.00716 3.37746 4.88155 6.59235C1.75595 9.80735 0 14.1677 0 18.7143V155.857C0 160.403 1.75595 164.763 4.88155 167.979C8.00716 171.194 12.2464 173 16.6667 173H110C110.884 173 111.732 172.638 112.357 171.995C112.982 171.352 113.333 170.48 113.333 169.571C113.333 168.661 112.982 167.789 112.357 167.146C111.732 166.504 110.884 166.143 110 166.143H16.6667C14.0169 166.134 11.478 165.048 9.60434 163.121C7.73069 161.194 6.67458 158.583 6.66667 155.857V49.5713H193.333V107.857C193.333 108.766 193.685 109.638 194.31 110.281C194.935 110.924 195.783 111.286 196.667 111.286C197.551 111.286 198.399 110.924 199.024 110.281C199.649 109.638 200 108.766 200 107.857V18.7143C200 14.1677 198.244 9.80735 195.118 6.59235C191.993 3.37746 187.754 1.57139 183.333 1.57139ZM146.667 -5.28577C146.667 -7.10439 147.369 -8.8485 148.619 -10.1345C149.87 -11.4204 151.565 -12.1429 153.333 -12.1429C155.101 -12.1429 156.797 -11.4204 158.047 -10.1345C159.298 -8.8485 160 -7.10439 160 -5.28577V15.2856C160 17.1042 159.298 18.8484 158.047 20.1344C156.797 21.4203 155.101 22.1428 153.333 22.1428C151.565 22.1428 149.87 21.4203 148.619 20.1344C147.369 18.8484 146.667 17.1042 146.667 15.2856V-5.28577ZM93.3333 -5.28577C93.3333 -7.10439 94.0357 -8.8485 95.286 -10.1345C96.5362 -11.4204 98.2319 -12.1429 100 -12.1429C101.768 -12.1429 103.464 -11.4204 104.714 -10.1345C105.964 -8.8485 106.667 -7.10439 106.667 -5.28577V15.2856C106.667 17.1042 105.964 18.8484 104.714 20.1344C103.464 21.4203 101.768 22.1428 100 22.1428C98.2319 22.1428 96.5362 21.4203 95.286 20.1344C94.0357 18.8484 93.3333 17.1042 93.3333 15.2856V-5.28577ZM40 -5.28577C40 -7.10439 40.7024 -8.8485 41.9526 -10.1345C43.2029 -11.4204 44.8986 -12.1429 46.6667 -12.1429C48.4348 -12.1429 50.1305 -11.4204 51.3807 -10.1345C52.631 -8.8485 53.3333 -7.10439 53.3333 -5.28577V15.2856C53.3333 17.1042 52.631 18.8484 51.3807 20.1344C50.1305 21.4203 48.4348 22.1428 46.6667 22.1428C44.8986 22.1428 43.2029 21.4203 41.9526 20.1344C40.7024 18.8484 40 17.1042 40 15.2856V-5.28577ZM193.333 42.7142H6.66667V18.7143C6.67458 15.9887 7.73069 13.3773 9.60434 11.4501C11.478 9.52295 14.0169 8.43668 16.6667 8.42856H33.3333V15.2856C33.3333 18.9228 34.7381 22.4111 37.2386 24.9831C39.7391 27.555 43.1304 28.9999 46.6667 28.9999C50.2029 28.9999 53.5943 27.555 56.0948 24.9831C58.5952 22.4111 60 18.9228 60 15.2856V8.42856H86.6667V15.2856C86.6667 18.9228 88.0714 22.4111 90.5719 24.9831C93.0724 27.555 96.4638 28.9999 100 28.9999C103.536 28.9999 106.928 27.555 109.428 24.9831C111.929 22.4111 113.333 18.9228 113.333 15.2856V8.42856H140V15.2856C140 18.9228 141.405 22.4111 143.905 24.9831C146.406 27.555 149.797 28.9999 153.333 28.9999C156.87 28.9999 160.261 27.555 162.761 24.9831C165.262 22.4111 166.667 18.9228 166.667 15.2856V8.42856H183.333C185.983 8.43668 188.522 9.52295 190.396 11.4501C192.269 13.3773 193.325 15.9887 193.333 18.7143V42.7142Z" fill="#1D77BC"/>
<path d="M93.3327 90C93.3327 88.2319 92.6303 86.5362 91.3801 85.286C90.1298 84.0358 88.4341 83.3334 86.666 83.3334H73.3327C71.5646 83.3334 69.8689 84.0358 68.6186 85.286C67.3684 86.5362 66.666 88.2319 66.666 90V100C66.666 101.768 67.3684 103.464 68.6186 104.714C69.8689 105.964 71.5646 106.667 73.3327 106.667H86.666C88.4341 106.667 90.1298 105.964 91.3801 104.714C92.6303 103.464 93.3327 101.768 93.3327 100V90ZM73.3327 100V90H86.666V100H73.3327Z" fill="#1D77BC"/>
<path d="M53.3327 90C53.3327 88.2319 52.6303 86.5362 51.3801 85.286C50.1298 84.0358 48.4341 83.3334 46.666 83.3334H33.3327C31.5646 83.3334 29.8689 84.0358 28.6186 85.286C27.3684 86.5362 26.666 88.2319 26.666 90V100C26.666 101.768 27.3684 103.464 28.6186 104.714C29.8689 105.964 31.5646 106.667 33.3327 106.667H46.666C48.4341 106.667 50.1298 105.964 51.3801 104.714C52.6303 103.464 53.3327 101.768 53.3327 100V90ZM33.3327 100V90H46.666V100H33.3327Z" fill="#1D77BC"/>
<path d="M166.5 91C168.224 91 169.877 90.2769 171.097 88.9912C172.316 87.7055 173 85.9611 173 84.1426V73.857C173 72.0384 172.316 70.2943 171.097 69.0084C169.877 67.7225 168.224 67 166.5 67H153.5C151.776 67 150.122 67.7225 148.903 69.0084C147.684 70.2943 147 72.0384 147 73.857V84.1426C147 85.9611 147.684 87.7055 148.903 88.9912C150.122 90.2769 151.776 91 153.5 91H166.5ZM153.5 73.857H166.5V84.1426H153.5V73.857Z" fill="#1D77BC"/>
<path d="M93.3327 120C93.3327 118.232 92.6303 116.536 91.3801 115.286C90.1298 114.036 88.4341 113.333 86.666 113.333H73.3327C71.5646 113.333 69.8689 114.036 68.6186 115.286C67.3684 116.536 66.666 118.232 66.666 120V130C66.666 131.768 67.3684 133.464 68.6186 134.714C69.8689 135.964 71.5646 136.667 73.3327 136.667H86.666C88.4341 136.667 90.1298 135.964 91.3801 134.714C92.6303 133.464 93.3327 131.768 93.3327 130V120ZM73.3327 130V120H86.666V130H73.3327Z" fill="#1D77BC"/>
<path d="M53.3327 120C53.3327 118.232 52.6303 116.536 51.3801 115.286C50.1298 114.036 48.4341 113.333 46.666 113.333H33.3327C31.5646 113.333 29.8689 114.036 28.6186 115.286C27.3684 116.536 26.666 118.232 26.666 120V130C26.666 131.768 27.3684 133.464 28.6186 134.714C29.8689 135.964 31.5646 136.667 33.3327 136.667H46.666C48.4341 136.667 50.1298 135.964 51.3801 134.714C52.6303 133.464 53.3327 131.768 53.3327 130V120ZM33.3327 130V120H46.666V130H33.3327Z" fill="#1D77BC"/>
<path d="M86.666 143.333H73.3327C71.5646 143.333 69.8689 144.036 68.6186 145.286C67.3684 146.536 66.666 148.232 66.666 150V160C66.666 161.768 67.3684 163.464 68.6186 164.714C69.8689 165.964 71.5646 166.667 73.3327 166.667H86.666C88.4341 166.667 90.1298 165.964 91.3801 164.714C92.6303 163.464 93.3327 161.768 93.3327 160V150C93.3327 148.232 92.6303 146.536 91.3801 145.286C90.1298 144.036 88.4341 143.333 86.666 143.333ZM73.3327 160V150H86.666V160H73.3327Z" fill="#1D77BC"/>
<path d="M113.334 106.667H126.668C128.436 106.667 130.131 105.964 131.382 104.714C132.632 103.464 133.334 101.768 133.334 100V90C133.334 88.2319 132.632 86.5362 131.382 85.286C130.131 84.0358 128.436 83.3334 126.668 83.3334H113.334C111.566 83.3334 109.87 84.0358 108.62 85.286C107.37 86.5362 106.668 88.2319 106.668 90V100C106.668 101.768 107.37 103.464 108.62 104.714C109.87 105.964 111.566 106.667 113.334 106.667ZM113.334 90H126.668V100H113.334V90Z" fill="#1D77BC"/>
<path d="M106.668 130C106.668 131.768 107.37 133.464 108.62 134.714C109.87 135.964 111.566 136.667 113.334 136.667C114.218 136.667 115.066 136.316 115.691 135.69C116.316 135.065 116.668 134.217 116.668 133.333C116.668 132.449 116.316 131.601 115.691 130.976C115.066 130.351 114.218 130 113.334 130V120H126.668C127.552 120 128.4 119.649 129.025 119.024C129.65 118.399 130.001 117.551 130.001 116.667C130.001 115.783 129.65 114.935 129.025 114.31C128.4 113.685 127.552 113.333 126.668 113.333H113.334C111.566 113.333 109.87 114.036 108.62 115.286C107.37 116.536 106.668 118.232 106.668 120V130Z" fill="#1D77BC"/>
<path d="M46.666 143.333H33.3327C31.5646 143.333 29.8689 144.036 28.6186 145.286C27.3684 146.536 26.666 148.232 26.666 150V160C26.666 161.768 27.3684 163.464 28.6186 164.714C29.8689 165.964 31.5646 166.667 33.3327 166.667H46.666C48.4341 166.667 50.1298 165.964 51.3801 164.714C52.6303 163.464 53.3327 161.768 53.3327 160V150C53.3327 148.232 52.6303 146.536 51.3801 145.286C50.1298 144.036 48.4341 143.333 46.666 143.333ZM33.3327 160V150H46.666V160H33.3327Z" fill="#1D77BC"/>
<path d="M156.5 97C147.896 97 139.486 99.6104 132.333 104.5C125.179 109.39 119.604 116.34 116.311 124.471C113.019 132.602 112.157 141.55 113.836 150.182C115.514 158.814 119.657 166.743 125.74 172.967C131.825 179.19 139.575 183.428 148.014 185.145C156.452 186.862 165.198 185.981 173.147 182.613C181.096 179.245 187.889 173.542 192.669 166.223C197.448 158.905 200 150.301 200 141.501C199.987 129.702 195.399 118.392 187.244 110.049C179.09 101.706 168.033 97.0144 156.5 97ZM156.5 179.154C149.22 179.154 142.104 176.946 136.051 172.808C129.998 168.671 125.28 162.79 122.494 155.909C119.708 149.029 118.98 141.459 120.399 134.154C121.819 126.851 125.325 120.141 130.473 114.875C135.62 109.61 142.179 106.023 149.319 104.57C156.459 103.117 163.86 103.863 170.585 106.713C177.311 109.562 183.06 114.389 187.105 120.581C191.149 126.774 193.307 134.053 193.307 141.501C193.296 151.483 189.414 161.053 182.514 168.112C175.614 175.171 166.259 179.143 156.5 179.154Z" fill="#1D77BC"/>
<path d="M176.352 127.938L150.429 153.933L138.648 142.115C138.019 141.506 137.177 141.169 136.304 141.177C135.43 141.184 134.594 141.536 133.976 142.156C133.358 142.776 133.007 143.614 133 144.49C132.992 145.366 133.328 146.211 133.935 146.841L148.073 161.021C148.698 161.648 149.545 162 150.429 162C151.313 162 152.161 161.648 152.786 161.021L181.064 132.664C181.671 132.033 182.007 131.189 182 130.313C181.992 129.437 181.641 128.598 181.023 127.979C180.405 127.359 179.569 127.007 178.695 127C177.822 126.992 176.98 127.329 176.352 127.938Z" fill="#1D77BC"/>
</g>
<defs>
<clipPath id="clip0">
<rect width="200" height="200" fill="white"/>
</clipPath>
</defs>
</svg>
