<svg width="201" height="205" viewBox="0 0 201 205" fill="none" xmlns="http://www.w3.org/2000/svg">
<path d="M124.972 55.8187C124.971 50.8043 123.512 45.9025 120.781 41.7335C118.049 37.5644 114.166 34.3152 109.624 32.3968C105.081 30.4783 100.083 29.9767 95.2608 30.9554C90.4389 31.9341 86.0099 34.3491 82.5336 37.8951C79.0574 41.4411 76.6902 45.9588 75.7313 50.877C74.7724 55.7952 75.2649 60.8929 77.1465 65.5256C79.0281 70.1583 82.2143 74.118 86.3022 76.9037C90.3901 79.6896 95.1962 81.1765 100.113 81.1765C106.704 81.1683 113.023 78.494 117.683 73.7401C122.343 68.9863 124.964 62.5412 124.972 55.8187ZM81.1418 55.8187C81.1425 51.992 82.2556 48.2514 84.3406 45.0699C86.4255 41.8884 89.3886 39.4089 92.8551 37.945C96.3216 36.481 100.136 36.0983 103.816 36.8453C107.496 37.5923 110.876 39.4354 113.528 42.1416C116.181 44.8477 117.988 48.2953 118.719 52.0486C119.451 55.8019 119.075 59.6921 117.639 63.2275C116.203 66.7629 113.772 69.7846 110.652 71.9105C107.533 74.0365 103.865 75.1712 100.113 75.1712C95.0824 75.1653 90.26 73.1244 86.7034 69.4963C83.1469 65.8681 81.1467 60.9492 81.1418 55.8187Z" fill="#CC902E"/>
<path d="M199.916 200.028L175.917 135.857C175.704 135.289 175.327 134.8 174.836 134.455C174.345 134.111 173.763 133.925 173.166 133.925H127.746C128.023 133.464 128.299 133.016 128.577 132.552C146.054 103.041 154.848 77.225 154.722 55.8325C154.725 41.0594 148.973 26.8905 138.733 16.4427C128.493 5.99479 114.603 0.123842 100.119 0.121339C85.6347 0.118836 71.7428 5.98498 61.4991 16.4293C51.2555 26.8736 45.4993 41.0405 45.4969 55.8136C45.3707 77.225 54.1655 103.045 71.6425 132.552C71.9201 133.022 72.196 133.469 72.4736 133.925H27.0526C26.4563 133.925 25.8741 134.111 25.383 134.455C24.8919 134.8 24.515 135.289 24.3021 135.857L0.306368 200.028C0.13539 200.483 0.075518 200.973 0.131925 201.457C0.188332 201.94 0.359321 202.402 0.630119 202.803C0.900917 203.205 1.26338 203.532 1.68619 203.759C2.109 203.984 2.57944 204.102 3.05686 204.101H197.166C197.643 204.102 198.113 203.984 198.536 203.759C198.959 203.532 199.321 203.205 199.592 202.803C199.863 202.402 200.034 201.94 200.09 201.457C200.147 200.973 200.087 200.483 199.916 200.028ZM51.3865 55.8187C51.3876 49.2925 52.649 42.8304 55.0986 36.8014C57.5483 30.7724 61.1383 25.2945 65.6636 20.6806C70.1889 16.0666 75.5609 12.4069 81.4729 9.91055C87.3849 7.41411 93.7211 6.1298 100.119 6.13092C106.518 6.13204 112.854 7.4186 118.765 9.91712C124.676 12.4156 130.047 16.0772 134.571 20.6927C139.094 25.3083 142.683 30.7874 145.13 36.8172C147.578 42.8471 148.837 49.3097 148.836 55.8358C149.088 98.4872 109.993 151.092 100.111 163.706C90.2298 151.097 51.1324 98.506 51.3865 55.8187ZM97.8689 170.398C98.1453 170.729 98.489 170.995 98.8762 171.178C99.2633 171.361 99.6848 171.455 100.111 171.455C100.538 171.455 100.959 171.361 101.346 171.178C101.733 170.995 102.077 170.729 102.354 170.398C110.17 160.686 117.416 150.512 124.055 139.927H171.136L174.904 150.008L82.9002 183.381L50.1063 139.922H76.1644C82.8037 150.509 90.0512 160.684 97.8689 170.398ZM82.7976 189.786H82.8144L137.701 169.884L158.99 198.096H59.9054L82.7976 189.786ZM29.0831 139.922H42.6757L77.0644 185.497L42.3376 198.094H7.32979L29.0831 139.922ZM166.427 198.096L143.533 167.757L177.01 155.614L192.896 198.096H166.427Z" fill="#CC902E"/>
</svg>
