<svg width="512" height="524" viewBox="0 0 512 524" fill="none" xmlns="http://www.w3.org/2000/svg">
<path d="M255.999 387.799C261.522 387.799 266 383.216 266 377.564C266 371.911 261.522 367.328 255.999 367.328C250.476 367.328 245.998 371.911 245.998 377.564C245.998 383.216 250.476 387.799 255.999 387.799Z" fill="#CC902E"/>
<path d="M512 280.612V248.747C512 244.942 510.156 241.406 507.068 239.289C503.981 237.171 500.085 236.768 496.645 238.216L475.608 247.068V232.389C475.608 228.221 473.598 224.332 470.232 221.987C466.865 219.641 462.593 219.154 458.806 220.681L449.744 224.334V204.665C449.744 201.038 447.973 197.692 445.009 195.714C442.02 193.721 438.285 193.414 435.013 194.892C428.426 197.866 418.439 198.91 406.121 197.907C386.229 196.289 366.293 197.6 346.868 201.803C292.086 213.656 266.703 235.523 256.013 248.427C253.688 245.612 250.677 242.38 246.793 238.904C231.588 225.296 210.694 214.49 184.692 206.785C180.717 205.607 176.552 207.949 175.401 212.023C174.249 216.096 176.541 220.353 180.52 221.532C229.122 235.935 245.229 258.419 248.499 263.822V271.235C201.576 239.441 143.785 227.096 141.139 226.543C137.084 225.7 133.121 228.375 132.292 232.528C131.463 236.681 134.08 240.736 138.138 241.587C138.796 241.724 203.013 255.478 248.499 289.976V299.426L205.286 282.003L77.258 230.383V211.219C85.351 213.495 95.342 214.168 107.069 213.213C120.852 212.091 134.765 212.491 148.418 214.403C152.518 214.981 156.306 212.039 156.866 207.838C157.428 203.637 154.555 199.766 150.451 199.192C135.731 197.131 120.737 196.7 105.879 197.907C93.567 198.911 83.576 197.866 76.988 194.892C73.717 193.414 69.977 193.721 66.992 195.714C64.028 197.692 62.257 201.038 62.257 204.665V224.334L53.195 220.681C49.407 219.154 45.135 219.641 41.769 221.987C38.403 224.332 36.393 228.221 36.393 232.389V247.068L15.356 238.216C11.917 236.768 8.02 237.17 4.933 239.289C1.844 241.406 0 244.942 0 248.747V280.612C0 284.895 2.311 288.774 6.03 290.733L168.381 376.338L6.896 444.286C2.706 446.049 0 450.183 0 454.818V509.977C0 513.776 1.839 517.309 4.921 519.428C6.786 520.71 8.946 521.366 11.123 521.366C12.544 521.366 13.972 521.086 15.33 520.519L55.913 503.567L82.14 510.858C84.83 511.606 87.674 511.298 90.152 509.992L256 422.539L344.961 469.448C348.64 471.388 353.166 469.908 355.064 466.14C356.962 462.371 355.514 457.742 351.831 455.8L272.377 413.906L326.109 385.573L496.998 457.477V504.072L460.545 488.845C458.296 487.904 455.767 487.747 453.423 488.398L427.381 495.637L383.03 472.252C379.349 470.309 374.825 471.79 372.927 475.56C371.029 479.329 372.477 483.958 376.16 485.899L421.849 509.991C424.326 511.298 427.174 511.605 429.86 510.857L456.089 503.565L496.67 520.517C498.029 521.084 499.456 521.364 500.878 521.364C503.054 521.364 505.216 520.708 507.079 519.426C510.16 517.308 512 513.775 512 509.975V454.816C512 450.18 509.293 446.047 505.104 444.285L343.62 376.339L505.969 290.735C509.689 288.774 512 284.895 512 280.612V280.612ZM263.501 289.976C308.987 255.478 373.204 241.724 373.862 241.587C377.919 240.738 380.538 236.684 379.71 232.53C378.882 228.376 374.918 225.698 370.861 226.543C368.215 227.096 310.425 239.441 263.501 271.235V263.812C265.018 261.289 269.294 255.07 278.221 247.78C289.95 238.203 311.918 225.058 349.971 216.824C367.986 212.925 386.478 211.71 404.932 213.212C416.659 214.166 426.649 213.494 434.743 211.217V230.382L306.715 282.002L263.502 299.425V289.976H263.501ZM51.394 236.457L253.25 317.844C255.016 318.556 256.983 318.556 258.749 317.844L460.605 236.457V253.381L256 339.472L51.394 253.381V236.457ZM15.002 278.194V254.669L236.274 347.773L186.598 368.675L15.002 278.194ZM12.598 458.488L12.619 458.479C12.612 458.482 12.605 458.485 12.598 458.488ZM496.998 278.194L84.618 495.636L58.576 488.397C56.231 487.745 53.701 487.903 51.456 488.843L15.001 504.071V457.477L496.997 254.669V278.194H496.998Z" fill="#CC902E"/>
<path d="M293.564 70.7789C299.087 70.7789 303.565 66.1964 303.565 60.5435C303.565 54.8907 299.087 50.3081 293.564 50.3081C288.04 50.3081 283.562 54.8907 283.562 60.5435C283.562 66.1964 288.04 70.7789 293.564 70.7789Z" fill="#CC902E"/>
<path d="M326.084 70.6333C331.508 69.5649 335.058 64.1987 334.015 58.6476C332.971 53.0965 327.727 49.4626 322.303 50.531C316.879 51.5994 313.329 56.9655 314.373 62.5166C315.417 68.0677 320.66 71.7017 326.084 70.6333Z" fill="#CC902E"/>
<path d="M378.36 174.308C382.503 174.308 385.861 170.871 385.861 166.631V78.5784C385.861 74.3383 382.503 70.9016 378.36 70.9016C374.217 70.9016 370.859 74.3383 370.859 78.5784V166.632C370.859 170.871 374.217 174.308 378.36 174.308Z" fill="#CC902E"/>
<path d="M139.494 78.5784V166.632C139.494 170.872 142.852 174.309 146.995 174.309C151.138 174.309 154.496 170.872 154.496 166.632V78.5784C154.496 74.3383 151.138 70.9016 146.995 70.9016C142.852 70.9016 139.494 74.3383 139.494 78.5784Z" fill="#CC902E"/>
<path d="M191.33 179.215C196.937 182.387 204.234 183.872 211.857 183.872C225.338 183.872 239.834 179.222 247.779 171.023C251.688 166.988 254.659 161.826 256.561 155.924C265.718 161.653 276.186 164.746 286.531 164.746C313.475 164.746 339.313 147.829 339.047 118.147C338.926 104.65 333.486 92.2209 324.85 85.7088C319.923 81.9958 311.599 78.3206 299.916 81.9129C284.175 86.7507 278.042 102.273 281.388 113.881C283.483 121.148 288.321 126.699 295.383 129.932C303.808 133.79 313.651 133.562 321.519 131.395C317.712 139.883 308.854 147.359 290.119 149.216C279.728 150.244 268.74 146.772 259.976 139.686C259.662 139.432 259.331 139.217 258.993 139.022C258.936 130.636 257.357 122.63 255.818 114.859L253.131 101.293C252.309 97.1375 248.357 94.4541 244.289 95.2933C240.229 96.1356 237.605 100.186 238.428 104.342L241.115 117.908C242.677 125.799 244.292 133.959 243.95 141.686C243.605 149.446 241.182 156.025 237.126 160.212C229.442 168.141 208.194 171.21 198.584 165.776C194.209 163.302 191.352 159.009 190.939 154.294C190.554 149.884 192.31 145.816 195.886 142.839C199.099 140.163 199.584 135.328 196.969 132.04C194.355 128.752 189.632 128.254 186.416 130.931C178.964 137.139 175.166 146.152 175.997 155.662C176.854 165.465 182.585 174.27 191.33 179.215V179.215ZM321.394 115.181C316.208 117.696 307.71 118.758 301.509 115.917C298.49 114.535 296.615 112.447 295.776 109.536C294.141 103.865 298.827 98.2776 304.23 96.6176C305.985 96.0783 307.621 95.8071 309.15 95.8071C311.698 95.8071 313.948 96.5593 315.951 98.0699C320.069 101.175 322.983 107.383 323.808 114.483C322.992 114.572 322.177 114.801 321.394 115.181V115.181Z" fill="#CC902E"/>
<path d="M126.755 56.3668C127.981 59.2652 130.743 60.9979 133.644 60.9979C134.637 60.9979 135.648 60.7942 136.619 60.3644C149.416 54.6986 163.229 47.3554 163.811 47.0453C166.966 45.3659 168.534 41.6498 167.567 38.1476C166.6 34.6454 163.356 32.315 159.816 32.578C149.787 33.3077 143.837 31.4082 142.143 26.9307C140.847 23.5042 142.115 21.2649 142.985 20.2354C144.204 18.7923 146.537 17.4926 149.429 18.1721C153.471 19.1157 157.492 16.5367 158.416 12.404C159.341 8.27138 156.818 4.15307 152.781 3.20639C144.936 1.36932 136.837 4.04356 131.641 10.1893C126.484 16.289 125.181 24.6208 128.154 32.4767C129.594 36.2798 132.217 40.3582 136.963 43.3896C134.869 44.3762 132.744 45.3516 130.661 46.2737C126.859 47.9562 125.11 52.4757 126.755 56.3668Z" fill="#CC902E"/>
</svg>
