<svg width="200" height="201" viewBox="0 0 200 201" fill="none" xmlns="http://www.w3.org/2000/svg">
<g clip-path="url(#clip0)">
<path d="M99.9998 15C58.0941 15 24 53.5801 24 100.999C24 148.42 58.0945 187 99.9998 187C141.908 187 176 148.42 176 100.999C176 53.5801 141.906 15 99.9998 15ZM99.9998 171.414C65.6896 171.414 37.7761 139.826 37.7761 101.002C37.7761 62.1776 65.6892 30.5917 99.9998 30.5917C134.31 30.5917 162.223 62.1776 162.223 101.002C162.223 139.828 134.31 171.414 99.9998 171.414Z" fill="#CC902E"/>
<path d="M121.117 98.5625H102.765V68.7184C102.765 64.4553 99.6836 61 95.8824 61C92.081 61 89 64.4553 89 68.7184V106.281C89 110.544 92.081 114 95.8824 114H121.117C124.918 114 128 110.544 128 106.281C127.999 102.018 124.918 98.5625 121.117 98.5625Z" fill="#CC902E"/>
<path d="M60.8451 161.657C58.0064 158.847 53.6353 159.103 51.0826 162.222L30.3451 187.566C27.7896 190.686 28.0225 195.494 30.8588 198.302C32.1791 199.612 33.8334 200.256 35.481 200.256C37.3728 200.256 39.2576 199.407 40.6217 197.737L61.3591 172.393C63.9142 169.273 63.6814 164.465 60.8451 161.657Z" fill="#CC902E"/>
<path d="M169.254 183.172L148.853 157.546C146.346 154.389 142.044 154.132 139.251 156.975C136.459 159.814 136.234 164.675 138.746 167.83L159.147 193.455C160.486 195.142 162.34 196 164.202 196C165.82 196 167.448 195.349 168.749 194.026C171.541 191.187 171.766 186.326 169.254 183.172Z" fill="#CC902E"/>
<path d="M59.6734 11.3368C45.9382 -3.45619 23.798 -3.43342 10.3211 11.3927C3.6157 18.7651 -0.0479632 28.52 0.000474212 38.8601C0.0512553 49.076 3.73328 58.641 10.3715 65.793C11.7172 67.2401 13.4613 67.9624 15.2078 67.9624C16.9773 67.9624 18.7469 67.2173 20.0949 65.7372L59.7261 22.1461C61.0304 20.7093 61.7585 18.76 61.7491 16.7303C61.7401 14.6997 60.9933 12.7586 59.6734 11.3368ZM15.966 48.7718C14.5813 45.7028 13.8414 42.3068 13.8254 38.7789C13.7953 32.5343 16.0211 26.624 20.0949 22.1431C24.1594 17.6751 29.5328 15.4422 34.9359 15.4422C38.0949 15.4422 41.2656 16.2048 44.1871 17.7305L15.966 48.7718Z" fill="#CC902E"/>
<path d="M189.638 3.34694C176.105 -11.7599 153.875 -11.7857 140.084 3.29008C138.761 4.73895 138.01 6.71766 138 8.78615C137.991 10.8551 138.724 12.8439 140.034 14.3055L179.825 58.7297C181.178 60.2434 182.954 61 184.731 61C186.484 61 188.238 60.264 189.587 58.7839C196.255 51.4979 199.951 41.7505 200 31.3389C200.049 20.8042 196.368 10.8629 189.638 3.34694ZM183.97 41.4431L155.636 9.80904C163.589 5.59368 173.359 7.08943 179.825 14.3081C183.915 18.8746 186.15 24.8949 186.12 31.2619C186.103 34.8546 185.361 38.3181 183.97 41.4431Z" fill="#CC902E"/>
</g>
<defs>
<clipPath id="clip0">
<rect width="200" height="201" fill="white"/>
</clipPath>
</defs>
</svg>
